<?xml version="1.0" encoding="UTF-8" standalone="no"?>
<!DOCTYPE svg PUBLIC "-//W3C//DTD SVG 1.1//EN" "http://www.w3.org/Graphics/SVG/1.1/DTD/svg11.dtd">
<svg version="1.1" xmlns="http://www.w3.org/2000/svg" xmlns:xlink="http://www.w3.org/1999/xlink" preserveAspectRatio="xMidYMid meet" viewBox="0 0 512 512" width="512" height="512"><defs><path d="M454.06 37.84C465.11 37.84 474.06 46.79 474.06 57.84C474.06 138.21 474.06 359.31 474.06 439.68C474.06 450.72 465.11 459.68 454.06 459.68C369.56 459.68 136.04 459.68 51.53 459.68C40.49 459.68 31.53 450.72 31.53 439.68C31.53 359.31 31.53 138.21 31.53 57.84C31.53 46.79 40.49 37.84 51.53 37.84C136.04 37.84 369.56 37.84 454.06 37.84Z" id="b6hUw5FwnR"></path><path d="M414.29 239.56C414.29 327.43 340.64 398.76 249.92 398.76C159.21 398.76 85.56 327.43 85.56 239.56C85.56 151.7 159.21 80.37 249.92 80.37C340.64 80.37 414.29 151.7 414.29 239.56Z" id="ceweGrYon"></path><path d="M343.58 290.74C343.58 333.23 301.62 367.74 249.92 367.74C198.23 367.74 156.26 333.23 156.26 290.74C156.26 248.24 198.23 213.74 249.92 213.74C301.62 213.74 343.58 248.24 343.58 290.74Z" id="a2EUgJP218"></path><path d="M337.28 171.17C337.28 185.76 325.43 197.61 310.84 197.61C296.25 197.61 284.41 185.76 284.41 171.17C284.41 156.58 296.25 144.74 310.84 144.74C325.43 144.74 337.28 156.58 337.28 171.17Z" id="b4fyGt599"></path><path d="M214.75 173.93C214.75 188.52 202.91 200.37 188.31 200.37C173.72 200.37 161.88 188.52 161.88 173.93C161.88 159.34 173.72 147.49 188.31 147.49C202.91 147.49 214.75 159.34 214.75 173.93Z" id="bE3GMypFI"></path><path d="M252.8 154.14L321.13 109.42L345.05 145.97L276.71 190.69L252.8 154.14Z" id="e18I3aihRg"></path><path d="M221.42 195.81L159.54 142.52L188.04 109.42L249.92 162.71L221.42 195.81Z" id="aqr5PMNol"></path><path d="M117.04 208.01L366 208.01L366 280.37L117.04 280.37L117.04 208.01Z" id="d7rH2hDQUf"></path><path d="M207.43 279.54L197.09 318.02L188.31 279.54L207.43 279.54Z" id="a9SkiWsgD"></path><path d="M311.58 279.54L301.24 318.02L292.46 279.54L311.58 279.54Z" id="a2ogeHeJLe"></path></defs><g><g><g><use xlink:href="#b6hUw5FwnR" opacity="1" fill="#282a36" fill-opacity="1"></use></g><g><use xlink:href="#ceweGrYon" opacity="1" fill="#bd93f9" fill-opacity="1"></use></g><g><use xlink:href="#a2EUgJP218" opacity="1" fill="#282a36" fill-opacity="1"></use></g><g><use xlink:href="#b4fyGt599" opacity="1" fill="#282a36" fill-opacity="1"></use></g><g><use xlink:href="#bE3GMypFI" opacity="1" fill="#282a36" fill-opacity="1"></use></g><g><use xlink:href="#e18I3aihRg" opacity="1" fill="#bd93f9" fill-opacity="1"></use></g><g><use xlink:href="#aqr5PMNol" opacity="1" fill="#bd93f9" fill-opacity="1"></use></g><g><use xlink:href="#d7rH2hDQUf" opacity="1" fill="#bd93f9" fill-opacity="1"></use></g><g><use xlink:href="#a9SkiWsgD" opacity="1" fill="#bd93f9" fill-opacity="1"></use><g><use xlink:href="#a9SkiWsgD" opacity="1" fill-opacity="0" stroke="#000000" stroke-width="0" stroke-opacity="1"></use></g></g><g><use xlink:href="#a2ogeHeJLe" opacity="1" fill="#bd93f9" fill-opacity="1"></use><g><use xlink:href="#a2ogeHeJLe" opacity="1" fill-opacity="0" stroke="#000000" stroke-width="0" stroke-opacity="1"></use></g></g></g></g></svg>